<?xml version="1.0" encoding="iso-8859-1"?>
<!-- Generator: Adobe Illustrator 19.0.0, SVG Export Plug-In . SVG Version: 6.00 Build 0)  -->
<svg version="1.1" id="Layer_1" xmlns="http://www.w3.org/2000/svg" xmlns:xlink="http://www.w3.org/1999/xlink" x="0px" y="0px"
	 viewBox="0 0 511.955 511.955" style="enable-background:new 0 0 511.955 511.955;" xml:space="preserve">
<g>
	<g>
		<path d="M493.877,425.097c-7.307-18.015-21.183-29.618-31.38-36.126c8.366-9.485,11.637-22.424,9.285-37.628
			c-1.831-11.871-7.585-23.161-17.582-34.504C438,298.442,433.574,258.385,442.07,206.942c4.929-29.791,4.66-58.238-0.781-84.541
			c-10.257-49.586-31.336-67.627-31.649-67.836C336.303-18.781,272.658,0.693,255.979,7.739
			c-16.662-7.055-80.245-26.572-153.088,46.297c-0.885,0.738-21.964,18.779-32.23,68.365c-5.441,26.303-5.701,54.749-0.772,84.541
			c8.496,51.443,4.07,91.501-12.132,109.898c-9.997,11.342-15.75,22.632-17.582,34.504c-2.352,15.204,0.92,28.143,9.285,37.628
			c-10.197,6.508-24.073,18.111-31.38,36.126c-7.784,19.178-6.309,40.847,4.365,64.399c1.406,3.107,4.495,5.103,7.906,5.103h139.082
			v8.678c0,4.79,3.888,8.678,8.678,8.678c4.799,0,8.678-3.888,8.678-8.678v-49.768c5.085,3.515,10.197,6.934,15.221,10.249
			l3.159,2.1c5.007,3.298,9.129,7.151,13.13,10.891c9.407,8.773,19.126,17.851,37.68,17.851c18.319,0,27.848-8.886,37.055-17.477
			c3.801-3.541,7.715-7.194,12.436-10.396c5.736-3.888,12.748-7.776,20.168-11.863v29.878c-0.061,0.399-0.234,0.764-0.234,1.18
			c0,0.417,0.174,0.772,0.234,1.172v16.184c0,4.79,3.888,8.678,8.678,8.678c4.799,0,8.678-3.888,8.678-8.678v-8.678h138.613
			c3.402,0,6.5-1.996,7.906-5.103C500.186,465.944,501.653,444.276,493.877,425.097z M352.183,417.105
			c-8.383,7.958-21.4,15.117-33.983,22.042c-8.149,4.478-15.82,8.704-22.476,13.217c-5.832,3.957-10.448,8.261-14.518,12.062
			c-8.279,7.715-13.746,12.817-25.227,12.817c-11.715,0-17.33-5.25-25.834-13.182c-4.313-4.027-9.19-8.591-15.395-12.687l-3.176-2.1
			c-8.435-5.563-17.156-11.307-25.244-17.408c-5.545-4.183-12.01-9.199-17.877-14.761c-37.463-35.571-42.635-92.212-42.644-148.133
			c0-19.621,8.86-37.202,25.201-49.699l104.969-86.58l105.22,86.78c16.08,12.297,24.949,29.878,24.949,49.499
			c0,4.808,0.035,9.676,0.069,14.579C386.557,332.998,386.912,384.129,352.183,417.105z"/>
	</g>
</g>
<g>
</g>
<g>
</g>
<g>
</g>
<g>
</g>
<g>
</g>
<g>
</g>
<g>
</g>
<g>
</g>
<g>
</g>
<g>
</g>
<g>
</g>
<g>
</g>
<g>
</g>
<g>
</g>
<g>
</g>
</svg>
