<?xml version="1.0" encoding="iso-8859-1"?>
<!-- Generator: Adobe Illustrator 16.0.0, SVG Export Plug-In . SVG Version: 6.00 Build 0)  -->
<!DOCTYPE svg PUBLIC "-//W3C//DTD SVG 1.1//EN" "http://www.w3.org/Graphics/SVG/1.1/DTD/svg11.dtd">
<svg version="1.1" id="Capa_1" xmlns="http://www.w3.org/2000/svg" xmlns:xlink="http://www.w3.org/1999/xlink" x="0px" y="0px"
	 width="405.43px" height="405.43px" viewBox="0 0 405.43 405.43" style="enable-background:new 0 0 405.43 405.43;"
	 xml:space="preserve">
<g>
	<g>
		<g id="Layer_5_77_">
			<g>
				<path d="M268.515,260.015c-1.523-2.409-8.688-11.193-11.079-14.108c-3.781-4.608-8.095-4.108-11.485-0.034
					c-8.271,9.936-19.832,23.728-26.46,31.623c-4.397,5.24-5.228,9.391-1.73,13.266c1.542,1.709,7.954,9.045,7.954,9.045
					c-12.342,27.566-7.276,61.031,15.353,83.66c29.284,29.285,76.767,29.285,106.051,0s29.284-76.766,0-106.051
					C325.854,256.154,295.029,250.409,268.515,260.015z M320.292,356.642c-13.552,13.551-35.521,13.551-49.068,0
					c-13.551-13.55-13.551-35.519,0-49.066c13.549-13.55,35.519-13.55,49.068,0C333.841,321.123,333.841,343.092,320.292,356.642z"
					/>
				<path d="M151.469,208.117c8.522-11.597,22.224-29.08,29.38-38.96c3.598-4.966,3.931-8.799,0.021-14.211
					C154.247,118.092,73.446,8.208,73.446,8.208C62.269-4.913,49.637-1.985,45.375,14.716L37.66,44.942
					c-4.263,16.7,2.222,40.337,14.409,52.524c0,0,66.482,82.781,88.285,110.658C143.936,212.702,148.467,212.202,151.469,208.117z"
					/>
				<path d="M59.064,273.079c-29.285,29.285-29.285,76.766,0,106.051c29.285,29.285,76.766,29.285,106.051,0
					c22.629-22.629,27.693-56.094,15.352-83.66l160.916-192.254c12.188-12.188,18.672-35.823,14.408-52.524l-7.716-30.226
					c-4.263-16.701-16.896-19.629-28.069-6.508L142.45,249.074c-1.666,1.956-3.262,4.194-4.787,6.605
					C111.148,246.075,80.323,251.821,59.064,273.079z M85.886,303.239c13.551-13.549,35.52-13.549,49.068,0
					c13.551,13.551,13.551,35.52,0,49.066c-13.549,13.552-35.518,13.552-49.068,0C72.337,338.759,72.337,316.79,85.886,303.239z"/>
			</g>
		</g>
	</g>
</g>
<g>
</g>
<g>
</g>
<g>
</g>
<g>
</g>
<g>
</g>
<g>
</g>
<g>
</g>
<g>
</g>
<g>
</g>
<g>
</g>
<g>
</g>
<g>
</g>
<g>
</g>
<g>
</g>
<g>
</g>
</svg>
