<?xml version="1.0" encoding="iso-8859-1"?>
<!-- Generator: Adobe Illustrator 19.0.0, SVG Export Plug-In . SVG Version: 6.00 Build 0)  -->
<svg version="1.1" id="Layer_1" xmlns="http://www.w3.org/2000/svg" xmlns:xlink="http://www.w3.org/1999/xlink" x="0px" y="0px"
	 viewBox="0 0 512.052 512.052" style="enable-background:new 0 0 512.052 512.052;" xml:space="preserve">
<g>
	<g>
		<path d="M430.417,144.291c-2.031-23.595-18.039-44.365-40.789-52.89c-14.532-5.453-17.809-18.782-18.458-22.682
			c3.2-3.541,19.516-7.808,34.654-8.96c3.328-0.247,6.195-2.415,7.356-5.538c1.161-3.132,0.393-6.647-1.963-9.003
			C364.795-1.203,256.038-0.051,251.891,0.06c-5.06-0.188-124.083-3.499-161.348,81.152c-1.041,1.835-24.721,46.054,7.561,150.869
			l-0.12,42.001c0,58.283,5.726,117.649,47.249,157.082c6.613,6.281,13.739,11.896,21.018,17.178v55.177
			c0,4.719,3.814,8.533,8.533,8.533c4.71,0,8.533-3.814,8.533-8.533v-43.204c0.981,0.657,1.963,1.314,2.944,1.963l7.885,5.308
			c3.234,2.193,6.391,4.523,9.54,6.852c13.662,10.104,27.784,20.548,47.659,20.548c0.043,0,0.077-0.009,0.12-0.009
			s0.077,0.009,0.119,0.009c19.874,0,33.997-10.445,47.659-20.548c3.149-2.33,6.306-4.659,9.54-6.852l8.201-5.504
			c0.947-0.64,1.911-1.297,2.867-1.937v43.375c0,4.719,3.814,8.533,8.533,8.533c4.71,0,8.533-3.814,8.533-8.533v-55.177
			c7.27-5.282,14.396-10.897,21.018-17.178c41.728-39.62,47.479-99.371,47.479-158.046v-24.243
			C424.495,209.084,432.951,173.893,430.417,144.291z M388.347,247.006v26.112c0,54.869-5.111,110.481-42.163,145.656
			c-6.793,6.451-14.37,12.254-22.153,17.775c-0.196,0.12-0.401,0.179-0.58,0.299c-5.359,3.806-10.837,7.467-16.307,11.11
			l-8.183,5.495c-3.422,2.321-6.767,4.796-10.095,7.262c-11.938,8.823-23.211,17.143-37.402,17.195
			c-14.191-0.051-25.464-8.371-37.402-17.195c-3.328-2.466-6.673-4.941-10.095-7.262l-8.303-5.572
			c-13.338-8.9-27.119-18.125-38.682-29.107c-38.69-36.719-41.933-93.935-41.933-144.666l0.128-43.605v-0.017l0.102-34.167
			c0-5.769,1.126-11.358,3.345-16.614c0.862-2.057,1.971-3.951,3.183-5.743c0.358-0.538,0.759-1.024,1.135-1.536
			c0.964-1.263,1.997-2.458,3.115-3.576c0.444-0.444,0.879-0.905,1.357-1.331c1.493-1.331,3.063-2.577,4.762-3.652
			c0.111-0.068,0.213-0.154,0.324-0.23c1.826-1.135,3.789-2.065,5.811-2.884c0.555-0.222,1.126-0.401,1.69-0.597
			c1.553-0.555,3.14-0.998,4.762-1.357c0.631-0.145,1.271-0.29,1.92-0.393c1.929-0.324,3.908-0.529,5.914-0.589
			c0.273,0,0.546-0.051,0.819-0.051c1.758-0.009,3.533,0.222,5.316,0.427c0.751,0.094,1.502,0.068,2.253,0.205
			c2.526,0.427,5.069,1.092,7.578,1.997c13.022,4.71,38.025,10.325,83.251,10.325c45.227,0,70.229-5.615,83.251-10.325
			c20.343-7.339,42.249,1.126,49.928,19.311c2.227,5.257,3.354,10.846,3.354,16.614V247.006z"/>
	</g>
</g>
<g>
</g>
<g>
</g>
<g>
</g>
<g>
</g>
<g>
</g>
<g>
</g>
<g>
</g>
<g>
</g>
<g>
</g>
<g>
</g>
<g>
</g>
<g>
</g>
<g>
</g>
<g>
</g>
<g>
</g>
</svg>
