<svg id="visual" viewBox="0 0 9000 9000" width="9000" height="9000" xmlns="http://www.w3.org/2000/svg" xmlns:xlink="http://www.w3.org/1999/xlink" version="1.1"><rect x="0" y="0" width="9000" height="9000" fill="#000000"></rect><path d="M0 8669L391 8669L391 8202L783 8202L783 8428L1174 8428L1174 8148L1565 8148L1565 8510L1957 8510L1957 8105L2348 8105L2348 8326L2739 8326L2739 8434L3130 8434L3130 8037L3522 8037L3522 7905L3913 7905L3913 8242L4304 8242L4304 8713L4696 8713L4696 8439L5087 8439L5087 8604L5478 8604L5478 8180L5870 8180L5870 8446L6261 8446L6261 8488L6652 8488L6652 8361L7043 8361L7043 8005L7435 8005L7435 8430L7826 8430L7826 8244L8217 8244L8217 8584L8609 8584L8609 8424L9000 8424L9000 8280L9000 0L9000 0L8609 0L8609 0L8217 0L8217 0L7826 0L7826 0L7435 0L7435 0L7043 0L7043 0L6652 0L6652 0L6261 0L6261 0L5870 0L5870 0L5478 0L5478 0L5087 0L5087 0L4696 0L4696 0L4304 0L4304 0L3913 0L3913 0L3522 0L3522 0L3130 0L3130 0L2739 0L2739 0L2348 0L2348 0L1957 0L1957 0L1565 0L1565 0L1174 0L1174 0L783 0L783 0L391 0L391 0L0 0Z" fill="#47445a"></path><path d="M0 7452L391 7452L391 7211L783 7211L783 7507L1174 7507L1174 7987L1565 7987L1565 7220L1957 7220L1957 7677L2348 7677L2348 7359L2739 7359L2739 7911L3130 7911L3130 7932L3522 7932L3522 7286L3913 7286L3913 7570L4304 7570L4304 7366L4696 7366L4696 7226L5087 7226L5087 7739L5478 7739L5478 7427L5870 7427L5870 7221L6261 7221L6261 7618L6652 7618L6652 7679L7043 7679L7043 7229L7435 7229L7435 7577L7826 7577L7826 7410L8217 7410L8217 7222L8609 7222L8609 7903L9000 7903L9000 7655L9000 0L9000 0L8609 0L8609 0L8217 0L8217 0L7826 0L7826 0L7435 0L7435 0L7043 0L7043 0L6652 0L6652 0L6261 0L6261 0L5870 0L5870 0L5478 0L5478 0L5087 0L5087 0L4696 0L4696 0L4304 0L4304 0L3913 0L3913 0L3522 0L3522 0L3130 0L3130 0L2739 0L2739 0L2348 0L2348 0L1957 0L1957 0L1565 0L1565 0L1174 0L1174 0L783 0L783 0L391 0L391 0L0 0Z" fill="#403f55"></path><path d="M0 6807L391 6807L391 6552L783 6552L783 6763L1174 6763L1174 7305L1565 7305L1565 7046L1957 7046L1957 7305L2348 7305L2348 7111L2739 7111L2739 7037L3130 7037L3130 6730L3522 6730L3522 7058L3913 7058L3913 6889L4304 6889L4304 7268L4696 7268L4696 7273L5087 7273L5087 6814L5478 6814L5478 7010L5870 7010L5870 7045L6261 7045L6261 6829L6652 6829L6652 6838L7043 6838L7043 7125L7435 7125L7435 6955L7826 6955L7826 6921L8217 6921L8217 7304L8609 7304L8609 6554L9000 6554L9000 6635L9000 0L9000 0L8609 0L8609 0L8217 0L8217 0L7826 0L7826 0L7435 0L7435 0L7043 0L7043 0L6652 0L6652 0L6261 0L6261 0L5870 0L5870 0L5478 0L5478 0L5087 0L5087 0L4696 0L4696 0L4304 0L4304 0L3913 0L3913 0L3522 0L3522 0L3130 0L3130 0L2739 0L2739 0L2348 0L2348 0L1957 0L1957 0L1565 0L1565 0L1174 0L1174 0L783 0L783 0L391 0L391 0L0 0Z" fill="#3a3a50"></path><path d="M0 6291L391 6291L391 6201L783 6201L783 6105L1174 6105L1174 6174L1565 6174L1565 6099L1957 6099L1957 6186L2348 6186L2348 6072L2739 6072L2739 6393L3130 6393L3130 6548L3522 6548L3522 5863L3913 5863L3913 5867L4304 5867L4304 6289L4696 6289L4696 6036L5087 6036L5087 6540L5478 6540L5478 6070L5870 6070L5870 5919L6261 5919L6261 6559L6652 6559L6652 6485L7043 6485L7043 6614L7435 6614L7435 6175L7826 6175L7826 6255L8217 6255L8217 6536L8609 6536L8609 6477L9000 6477L9000 5991L9000 0L9000 0L8609 0L8609 0L8217 0L8217 0L7826 0L7826 0L7435 0L7435 0L7043 0L7043 0L6652 0L6652 0L6261 0L6261 0L5870 0L5870 0L5478 0L5478 0L5087 0L5087 0L4696 0L4696 0L4304 0L4304 0L3913 0L3913 0L3522 0L3522 0L3130 0L3130 0L2739 0L2739 0L2348 0L2348 0L1957 0L1957 0L1565 0L1565 0L1174 0L1174 0L783 0L783 0L391 0L391 0L0 0Z" fill="#34364b"></path><path d="M0 5472L391 5472L391 5273L783 5273L783 5879L1174 5879L1174 5423L1565 5423L1565 5617L1957 5617L1957 5147L2348 5147L2348 5630L2739 5630L2739 5428L3130 5428L3130 5580L3522 5580L3522 5551L3913 5551L3913 5206L4304 5206L4304 5592L4696 5592L4696 5692L5087 5692L5087 5283L5478 5283L5478 5188L5870 5188L5870 5154L6261 5154L6261 5896L6652 5896L6652 5787L7043 5787L7043 5312L7435 5312L7435 5673L7826 5673L7826 5683L8217 5683L8217 5808L8609 5808L8609 5736L9000 5736L9000 5128L9000 0L9000 0L8609 0L8609 0L8217 0L8217 0L7826 0L7826 0L7435 0L7435 0L7043 0L7043 0L6652 0L6652 0L6261 0L6261 0L5870 0L5870 0L5478 0L5478 0L5087 0L5087 0L4696 0L4696 0L4304 0L4304 0L3913 0L3913 0L3522 0L3522 0L3130 0L3130 0L2739 0L2739 0L2348 0L2348 0L1957 0L1957 0L1565 0L1565 0L1174 0L1174 0L783 0L783 0L391 0L391 0L0 0Z" fill="#2d3146"></path><path d="M0 4755L391 4755L391 4580L783 4580L783 5070L1174 5070L1174 5101L1565 5101L1565 5118L1957 5118L1957 5046L2348 5046L2348 4851L2739 4851L2739 4757L3130 4757L3130 4522L3522 4522L3522 4897L3913 4897L3913 4599L4304 4599L4304 5105L4696 5105L4696 4623L5087 4623L5087 5106L5478 5106L5478 4537L5870 4537L5870 4717L6261 4717L6261 4745L6652 4745L6652 4602L7043 4602L7043 4926L7435 4926L7435 4612L7826 4612L7826 4926L8217 4926L8217 4433L8609 4433L8609 4549L9000 4549L9000 4644L9000 0L9000 0L8609 0L8609 0L8217 0L8217 0L7826 0L7826 0L7435 0L7435 0L7043 0L7043 0L6652 0L6652 0L6261 0L6261 0L5870 0L5870 0L5478 0L5478 0L5087 0L5087 0L4696 0L4696 0L4304 0L4304 0L3913 0L3913 0L3522 0L3522 0L3130 0L3130 0L2739 0L2739 0L2348 0L2348 0L1957 0L1957 0L1565 0L1565 0L1174 0L1174 0L783 0L783 0L391 0L391 0L0 0Z" fill="#272c41"></path><path d="M0 4427L391 4427L391 3835L783 3835L783 4519L1174 4519L1174 4239L1565 4239L1565 3809L1957 3809L1957 3765L2348 3765L2348 4270L2739 4270L2739 4511L3130 4511L3130 4429L3522 4429L3522 3832L3913 3832L3913 4085L4304 4085L4304 4099L4696 4099L4696 4541L5087 4541L5087 4047L5478 4047L5478 4367L5870 4367L5870 4429L6261 4429L6261 3999L6652 3999L6652 4382L7043 4382L7043 4194L7435 4194L7435 4060L7826 4060L7826 4007L8217 4007L8217 4444L8609 4444L8609 3776L9000 3776L9000 3946L9000 0L9000 0L8609 0L8609 0L8217 0L8217 0L7826 0L7826 0L7435 0L7435 0L7043 0L7043 0L6652 0L6652 0L6261 0L6261 0L5870 0L5870 0L5478 0L5478 0L5087 0L5087 0L4696 0L4696 0L4304 0L4304 0L3913 0L3913 0L3522 0L3522 0L3130 0L3130 0L2739 0L2739 0L2348 0L2348 0L1957 0L1957 0L1565 0L1565 0L1174 0L1174 0L783 0L783 0L391 0L391 0L0 0Z" fill="#21283b"></path><path d="M0 3433L391 3433L391 3764L783 3764L783 3220L1174 3220L1174 3351L1565 3351L1565 3788L1957 3788L1957 3356L2348 3356L2348 3705L2739 3705L2739 3128L3130 3128L3130 3603L3522 3603L3522 3280L3913 3280L3913 3568L4304 3568L4304 3420L4696 3420L4696 3629L5087 3629L5087 3319L5478 3319L5478 3785L5870 3785L5870 3782L6261 3782L6261 3388L6652 3388L6652 3411L7043 3411L7043 3466L7435 3466L7435 3499L7826 3499L7826 3142L8217 3142L8217 3074L8609 3074L8609 3131L9000 3131L9000 3293L9000 0L9000 0L8609 0L8609 0L8217 0L8217 0L7826 0L7826 0L7435 0L7435 0L7043 0L7043 0L6652 0L6652 0L6261 0L6261 0L5870 0L5870 0L5478 0L5478 0L5087 0L5087 0L4696 0L4696 0L4304 0L4304 0L3913 0L3913 0L3522 0L3522 0L3130 0L3130 0L2739 0L2739 0L2348 0L2348 0L1957 0L1957 0L1565 0L1565 0L1174 0L1174 0L783 0L783 0L391 0L391 0L0 0Z" fill="#1b2336"></path><path d="M0 2581L391 2581L391 2360L783 2360L783 3047L1174 3047L1174 2561L1565 2561L1565 2480L1957 2480L1957 2430L2348 2430L2348 2718L2739 2718L2739 2853L3130 2853L3130 2850L3522 2850L3522 3113L3913 3113L3913 2501L4304 2501L4304 2572L4696 2572L4696 2539L5087 2539L5087 2982L5478 2982L5478 2489L5870 2489L5870 2658L6261 2658L6261 2551L6652 2551L6652 2451L7043 2451L7043 2428L7435 2428L7435 2864L7826 2864L7826 2527L8217 2527L8217 2395L8609 2395L8609 3073L9000 3073L9000 2881L9000 0L9000 0L8609 0L8609 0L8217 0L8217 0L7826 0L7826 0L7435 0L7435 0L7043 0L7043 0L6652 0L6652 0L6261 0L6261 0L5870 0L5870 0L5478 0L5478 0L5087 0L5087 0L4696 0L4696 0L4304 0L4304 0L3913 0L3913 0L3522 0L3522 0L3130 0L3130 0L2739 0L2739 0L2348 0L2348 0L1957 0L1957 0L1565 0L1565 0L1174 0L1174 0L783 0L783 0L391 0L391 0L0 0Z" fill="#141f31"></path><path d="M0 1795L391 1795L391 1903L783 1903L783 2011L1174 2011L1174 1778L1565 1778L1565 2177L1957 2177L1957 1889L2348 1889L2348 1818L2739 1818L2739 1847L3130 1847L3130 2221L3522 2221L3522 2350L3913 2350L3913 2151L4304 2151L4304 1804L4696 1804L4696 1748L5087 1748L5087 1950L5478 1950L5478 2316L5870 2316L5870 2464L6261 2464L6261 1671L6652 1671L6652 1951L7043 1951L7043 1945L7435 1945L7435 2001L7826 2001L7826 2159L8217 2159L8217 2444L8609 2444L8609 2330L9000 2330L9000 2116L9000 0L9000 0L8609 0L8609 0L8217 0L8217 0L7826 0L7826 0L7435 0L7435 0L7043 0L7043 0L6652 0L6652 0L6261 0L6261 0L5870 0L5870 0L5478 0L5478 0L5087 0L5087 0L4696 0L4696 0L4304 0L4304 0L3913 0L3913 0L3522 0L3522 0L3130 0L3130 0L2739 0L2739 0L2348 0L2348 0L1957 0L1957 0L1565 0L1565 0L1174 0L1174 0L783 0L783 0L391 0L391 0L0 0Z" fill="#0e1a2c"></path><path d="M0 1640L391 1640L391 1247L783 1247L783 1418L1174 1418L1174 1298L1565 1298L1565 1523L1957 1523L1957 1146L2348 1146L2348 1132L2739 1132L2739 1337L3130 1337L3130 1649L3522 1649L3522 1302L3913 1302L3913 1324L4304 1324L4304 1516L4696 1516L4696 1409L5087 1409L5087 1612L5478 1612L5478 1156L5870 1156L5870 1686L6261 1686L6261 1794L6652 1794L6652 1363L7043 1363L7043 1535L7435 1535L7435 1447L7826 1447L7826 1780L8217 1780L8217 1191L8609 1191L8609 1144L9000 1144L9000 1554L9000 0L9000 0L8609 0L8609 0L8217 0L8217 0L7826 0L7826 0L7435 0L7435 0L7043 0L7043 0L6652 0L6652 0L6261 0L6261 0L5870 0L5870 0L5478 0L5478 0L5087 0L5087 0L4696 0L4696 0L4304 0L4304 0L3913 0L3913 0L3522 0L3522 0L3130 0L3130 0L2739 0L2739 0L2348 0L2348 0L1957 0L1957 0L1565 0L1565 0L1174 0L1174 0L783 0L783 0L391 0L391 0L0 0Z" fill="#071627"></path><path d="M0 388L391 388L391 560L783 560L783 885L1174 885L1174 524L1565 524L1565 359L1957 359L1957 296L2348 296L2348 398L2739 398L2739 1038L3130 1038L3130 590L3522 590L3522 335L3913 335L3913 927L4304 927L4304 719L4696 719L4696 787L5087 787L5087 1026L5478 1026L5478 345L5870 345L5870 833L6261 833L6261 452L6652 452L6652 885L7043 885L7043 625L7435 625L7435 399L7826 399L7826 928L8217 928L8217 915L8609 915L8609 854L9000 854L9000 405L9000 0L9000 0L8609 0L8609 0L8217 0L8217 0L7826 0L7826 0L7435 0L7435 0L7043 0L7043 0L6652 0L6652 0L6261 0L6261 0L5870 0L5870 0L5478 0L5478 0L5087 0L5087 0L4696 0L4696 0L4304 0L4304 0L3913 0L3913 0L3522 0L3522 0L3130 0L3130 0L2739 0L2739 0L2348 0L2348 0L1957 0L1957 0L1565 0L1565 0L1174 0L1174 0L783 0L783 0L391 0L391 0L0 0Z" fill="#001122"></path></svg>