<svg id="visual" viewBox="0 0 900 600" width="900" height="600" xmlns="http://www.w3.org/2000/svg" xmlns:xlink="http://www.w3.org/1999/xlink" version="1.1"><rect x="0" y="0" width="900" height="600" fill="#000"></rect><path d="M0 34L8.8 43C17.7 52 35.3 70 53 85C70.7 100 88.3 112 106 116.2C123.7 120.3 141.3 116.7 159 117.3C176.7 118 194.3 123 212 119.8C229.7 116.7 247.3 105.3 265 109.2C282.7 113 300.3 132 318 134.5C335.7 137 353.3 123 371 109.8C388.7 96.7 406.3 84.3 423.8 93.8C441.3 103.3 458.7 134.7 476.2 128.8C493.7 123 511.3 80 529 59.3C546.7 38.7 564.3 40.3 582 37.5C599.7 34.7 617.3 27.3 635 35.8C652.7 44.3 670.3 68.7 688 73C705.7 77.3 723.3 61.7 741 61C758.7 60.3 776.3 74.7 794 82C811.7 89.3 829.3 89.7 847 91C864.7 92.3 882.3 94.7 891.2 95.8L900 97L900 601L891.2 601C882.3 601 864.7 601 847 601C829.3 601 811.7 601 794 601C776.3 601 758.7 601 741 601C723.3 601 705.7 601 688 601C670.3 601 652.7 601 635 601C617.3 601 599.7 601 582 601C564.3 601 546.7 601 529 601C511.3 601 493.7 601 476.2 601C458.7 601 441.3 601 423.8 601C406.3 601 388.7 601 371 601C353.3 601 335.7 601 318 601C300.3 601 282.7 601 265 601C247.3 601 229.7 601 212 601C194.3 601 176.7 601 159 601C141.3 601 123.7 601 106 601C88.3 601 70.7 601 53 601C35.3 601 17.7 601 8.8 601L0 601Z" fill="#787878"></path><path d="M0 194L8.8 193C17.7 192 35.3 190 53 194.3C70.7 198.7 88.3 209.3 106 222C123.7 234.7 141.3 249.3 159 248.8C176.7 248.3 194.3 232.7 212 208.7C229.7 184.7 247.3 152.3 265 150.8C282.7 149.3 300.3 178.7 318 202.3C335.7 226 353.3 244 371 230.3C388.7 216.7 406.3 171.3 423.8 162.7C441.3 154 458.7 182 476.2 204.2C493.7 226.3 511.3 242.7 529 234C546.7 225.3 564.3 191.7 582 170.7C599.7 149.7 617.3 141.3 635 137.5C652.7 133.7 670.3 134.3 688 147.7C705.7 161 723.3 187 741 208.7C758.7 230.3 776.3 247.7 794 232.3C811.7 217 829.3 169 847 165C864.7 161 882.3 201 891.2 221L900 241L900 601L891.2 601C882.3 601 864.7 601 847 601C829.3 601 811.7 601 794 601C776.3 601 758.7 601 741 601C723.3 601 705.7 601 688 601C670.3 601 652.7 601 635 601C617.3 601 599.7 601 582 601C564.3 601 546.7 601 529 601C511.3 601 493.7 601 476.2 601C458.7 601 441.3 601 423.8 601C406.3 601 388.7 601 371 601C353.3 601 335.7 601 318 601C300.3 601 282.7 601 265 601C247.3 601 229.7 601 212 601C194.3 601 176.7 601 159 601C141.3 601 123.7 601 106 601C88.3 601 70.7 601 53 601C35.3 601 17.7 601 8.8 601L0 601Z" fill="#686868"></path><path d="M0 345L8.8 331.3C17.7 317.7 35.3 290.3 53 279.7C70.7 269 88.3 275 106 275C123.7 275 141.3 269 159 256.2C176.7 243.3 194.3 223.7 212 225.2C229.7 226.7 247.3 249.3 265 271.7C282.7 294 300.3 316 318 303C335.7 290 353.3 242 371 236.2C388.7 230.3 406.3 266.7 423.8 280.8C441.3 295 458.7 287 476.2 284C493.7 281 511.3 283 529 271.7C546.7 260.3 564.3 235.7 582 242C599.7 248.3 617.3 285.7 635 305.8C652.7 326 670.3 329 688 328.5C705.7 328 723.3 324 741 316.3C758.7 308.7 776.3 297.3 794 290.7C811.7 284 829.3 282 847 278C864.7 274 882.3 268 891.2 265L900 262L900 601L891.2 601C882.3 601 864.7 601 847 601C829.3 601 811.7 601 794 601C776.3 601 758.7 601 741 601C723.3 601 705.7 601 688 601C670.3 601 652.7 601 635 601C617.3 601 599.7 601 582 601C564.3 601 546.7 601 529 601C511.3 601 493.7 601 476.2 601C458.7 601 441.3 601 423.8 601C406.3 601 388.7 601 371 601C353.3 601 335.7 601 318 601C300.3 601 282.7 601 265 601C247.3 601 229.7 601 212 601C194.3 601 176.7 601 159 601C141.3 601 123.7 601 106 601C88.3 601 70.7 601 53 601C35.3 601 17.7 601 8.8 601L0 601Z" fill="#595959"></path><path d="M0 423L8.8 398.5C17.7 374 35.3 325 53 306.8C70.7 288.7 88.3 301.3 106 326.2C123.7 351 141.3 388 159 400.2C176.7 412.3 194.3 399.7 212 377.7C229.7 355.7 247.3 324.3 265 327.8C282.7 331.3 300.3 369.7 318 370C335.7 370.3 353.3 332.7 371 333.8C388.7 335 406.3 375 423.8 379.3C441.3 383.7 458.7 352.3 476.2 337.7C493.7 323 511.3 325 529 339.8C546.7 354.7 564.3 382.3 582 387.5C599.7 392.7 617.3 375.3 635 376.8C652.7 378.3 670.3 398.7 688 409.8C705.7 421 723.3 423 741 403.7C758.7 384.3 776.3 343.7 794 324.7C811.7 305.7 829.3 308.3 847 312.3C864.7 316.3 882.3 321.7 891.2 324.3L900 327L900 601L891.2 601C882.3 601 864.7 601 847 601C829.3 601 811.7 601 794 601C776.3 601 758.7 601 741 601C723.3 601 705.7 601 688 601C670.3 601 652.7 601 635 601C617.3 601 599.7 601 582 601C564.3 601 546.7 601 529 601C511.3 601 493.7 601 476.2 601C458.7 601 441.3 601 423.8 601C406.3 601 388.7 601 371 601C353.3 601 335.7 601 318 601C300.3 601 282.7 601 265 601C247.3 601 229.7 601 212 601C194.3 601 176.7 601 159 601C141.3 601 123.7 601 106 601C88.3 601 70.7 601 53 601C35.3 601 17.7 601 8.8 601L0 601Z" fill="#4a4a4a"></path><path d="M0 451L8.8 436C17.7 421 35.3 391 53 384C70.7 377 88.3 393 106 398C123.7 403 141.3 397 159 390C176.7 383 194.3 375 212 383.3C229.7 391.7 247.3 416.3 265 435.5C282.7 454.7 300.3 468.3 318 475.7C335.7 483 353.3 484 371 467C388.7 450 406.3 415 423.8 409.8C441.3 404.7 458.7 429.3 476.2 449C493.7 468.7 511.3 483.3 529 486.2C546.7 489 564.3 480 582 472.8C599.7 465.7 617.3 460.3 635 455.3C652.7 450.3 670.3 445.7 688 435.7C705.7 425.7 723.3 410.3 741 411.2C758.7 412 776.3 429 794 435.8C811.7 442.7 829.3 439.3 847 431.8C864.7 424.3 882.3 412.7 891.2 406.8L900 401L900 601L891.2 601C882.3 601 864.7 601 847 601C829.3 601 811.7 601 794 601C776.3 601 758.7 601 741 601C723.3 601 705.7 601 688 601C670.3 601 652.7 601 635 601C617.3 601 599.7 601 582 601C564.3 601 546.7 601 529 601C511.3 601 493.7 601 476.2 601C458.7 601 441.3 601 423.8 601C406.3 601 388.7 601 371 601C353.3 601 335.7 601 318 601C300.3 601 282.7 601 265 601C247.3 601 229.7 601 212 601C194.3 601 176.7 601 159 601C141.3 601 123.7 601 106 601C88.3 601 70.7 601 53 601C35.3 601 17.7 601 8.8 601L0 601Z" fill="#3b3b3b"></path><path d="M0 475L8.8 489.5C17.7 504 35.3 533 53 538.3C70.7 543.7 88.3 525.3 106 524.3C123.7 523.3 141.3 539.7 159 541.7C176.7 543.7 194.3 531.3 212 515.7C229.7 500 247.3 481 265 482.3C282.7 483.7 300.3 505.3 318 521C335.7 536.7 353.3 546.3 371 543.7C388.7 541 406.3 526 423.8 528.8C441.3 531.7 458.7 552.3 476.2 546.8C493.7 541.3 511.3 509.7 529 488.3C546.7 467 564.3 456 582 457.8C599.7 459.7 617.3 474.3 635 486.5C652.7 498.7 670.3 508.3 688 509.3C705.7 510.3 723.3 502.7 741 501.8C758.7 501 776.3 507 794 512.5C811.7 518 829.3 523 847 519C864.7 515 882.3 502 891.2 495.5L900 489L900 601L891.2 601C882.3 601 864.7 601 847 601C829.3 601 811.7 601 794 601C776.3 601 758.7 601 741 601C723.3 601 705.7 601 688 601C670.3 601 652.7 601 635 601C617.3 601 599.7 601 582 601C564.3 601 546.7 601 529 601C511.3 601 493.7 601 476.2 601C458.7 601 441.3 601 423.8 601C406.3 601 388.7 601 371 601C353.3 601 335.7 601 318 601C300.3 601 282.7 601 265 601C247.3 601 229.7 601 212 601C194.3 601 176.7 601 159 601C141.3 601 123.7 601 106 601C88.3 601 70.7 601 53 601C35.3 601 17.7 601 8.8 601L0 601Z" fill="#2d2d2d"></path></svg>