<svg id="visual" viewBox="0 0 900 600" width="900" height="600" xmlns="http://www.w3.org/2000/svg" xmlns:xlink="http://www.w3.org/1999/xlink" version="1.1"><rect x="0" y="0" width="900" height="600" fill="#000000"></rect><path d="M0 54L10 78.8C20 103.7 40 153.3 60 177.7C80 202 100 201 120 184.2C140 167.3 160 134.7 180 112C200 89.3 220 76.7 240 93.3C260 110 280 156 300 179.3C320 202.7 340 203.3 360 208.8C380 214.3 400 224.7 420 218.8C440 213 460 191 480 181.8C500 172.7 520 176.3 540 165.2C560 154 580 128 600 132.5C620 137 640 172 660 187C680 202 700 197 720 190.3C740 183.7 760 175.3 780 164.8C800 154.3 820 141.7 840 156.5C860 171.3 880 213.7 890 234.8L900 256L900 601L890 601C880 601 860 601 840 601C820 601 800 601 780 601C760 601 740 601 720 601C700 601 680 601 660 601C640 601 620 601 600 601C580 601 560 601 540 601C520 601 500 601 480 601C460 601 440 601 420 601C400 601 380 601 360 601C340 601 320 601 300 601C280 601 260 601 240 601C220 601 200 601 180 601C160 601 140 601 120 601C100 601 80 601 60 601C40 601 20 601 10 601L0 601Z" fill="#1a161f"></path><path d="M0 323L10 316C20 309 40 295 60 283.7C80 272.3 100 263.7 120 255.8C140 248 160 241 180 232C200 223 220 212 240 229C260 246 280 291 300 297.7C320 304.3 340 272.7 360 261.3C380 250 400 259 420 247.2C440 235.3 460 202.7 480 186.2C500 169.7 520 169.3 540 184.2C560 199 580 229 600 250.3C620 271.7 640 284.3 660 275.3C680 266.3 700 235.7 720 219.7C740 203.7 760 202.3 780 223.3C800 244.3 820 287.7 840 280.5C860 273.3 880 215.7 890 186.8L900 158L900 601L890 601C880 601 860 601 840 601C820 601 800 601 780 601C760 601 740 601 720 601C700 601 680 601 660 601C640 601 620 601 600 601C580 601 560 601 540 601C520 601 500 601 480 601C460 601 440 601 420 601C400 601 380 601 360 601C340 601 320 601 300 601C280 601 260 601 240 601C220 601 200 601 180 601C160 601 140 601 120 601C100 601 80 601 60 601C40 601 20 601 10 601L0 601Z" fill="#18141b"></path><path d="M0 309L10 314.8C20 320.7 40 332.3 60 347.2C80 362 100 380 120 374C140 368 160 338 180 330.2C200 322.3 220 336.7 240 329C260 321.3 280 291.7 300 279.3C320 267 340 272 360 295.3C380 318.7 400 360.3 420 371.5C440 382.7 460 363.3 480 354.7C500 346 520 348 540 339.5C560 331 580 312 600 315.2C620 318.3 640 343.7 660 347C680 350.3 700 331.7 720 317.7C740 303.7 760 294.3 780 289C800 283.7 820 282.3 840 289C860 295.7 880 310.3 890 317.7L900 325L900 601L890 601C880 601 860 601 840 601C820 601 800 601 780 601C760 601 740 601 720 601C700 601 680 601 660 601C640 601 620 601 600 601C580 601 560 601 540 601C520 601 500 601 480 601C460 601 440 601 420 601C400 601 380 601 360 601C340 601 320 601 300 601C280 601 260 601 240 601C220 601 200 601 180 601C160 601 140 601 120 601C100 601 80 601 60 601C40 601 20 601 10 601L0 601Z" fill="#151218"></path><path d="M0 490L10 490.2C20 490.3 40 490.7 60 471.8C80 453 100 415 120 396.7C140 378.3 160 379.7 180 385.5C200 391.3 220 401.7 240 410.7C260 419.7 280 427.3 300 417.2C320 407 340 379 360 387.8C380 396.7 400 442.3 420 457.2C440 472 460 456 480 435.3C500 414.7 520 389.3 540 384.3C560 379.3 580 394.7 600 390C620 385.3 640 360.7 660 359C680 357.3 700 378.7 720 401.8C740 425 760 450 780 447C800 444 820 413 840 410.7C860 408.3 880 434.7 890 447.8L900 461L900 601L890 601C880 601 860 601 840 601C820 601 800 601 780 601C760 601 740 601 720 601C700 601 680 601 660 601C640 601 620 601 600 601C580 601 560 601 540 601C520 601 500 601 480 601C460 601 440 601 420 601C400 601 380 601 360 601C340 601 320 601 300 601C280 601 260 601 240 601C220 601 200 601 180 601C160 601 140 601 120 601C100 601 80 601 60 601C40 601 20 601 10 601L0 601Z" fill="#121014"></path><path d="M0 533L10 535.2C20 537.3 40 541.7 60 545.5C80 549.3 100 552.7 120 554.3C140 556 160 556 180 553.5C200 551 220 546 240 527C260 508 280 475 300 460.5C320 446 340 450 360 459.3C380 468.7 400 483.3 420 497.2C440 511 460 524 480 533.8C500 543.7 520 550.3 540 546C560 541.7 580 526.3 600 520.8C620 515.3 640 519.7 660 526.7C680 533.7 700 543.3 720 538.8C740 534.3 760 515.7 780 495.8C800 476 820 455 840 445.7C860 436.3 880 438.7 890 439.8L900 441L900 601L890 601C880 601 860 601 840 601C820 601 800 601 780 601C760 601 740 601 720 601C700 601 680 601 660 601C640 601 620 601 600 601C580 601 560 601 540 601C520 601 500 601 480 601C460 601 440 601 420 601C400 601 380 601 360 601C340 601 320 601 300 601C280 601 260 601 240 601C220 601 200 601 180 601C160 601 140 601 120 601C100 601 80 601 60 601C40 601 20 601 10 601L0 601Z" fill="#0f0e10"></path></svg>