<svg id="visual" viewBox="0 0 900 600" width="900" height="600" xmlns="http://www.w3.org/2000/svg" xmlns:xlink="http://www.w3.org/1999/xlink" version="1.1"><rect x="0" y="0" width="900" height="600" fill="#6A5B6E"></rect><path d="M0 193L10 192.3C20 191.7 40 190.3 60 192.5C80 194.7 100 200.3 120 194.5C140 188.7 160 171.3 180 147C200 122.7 220 91.3 240 73.8C260 56.3 280 52.7 300 65.7C320 78.7 340 108.3 360 130.5C380 152.7 400 167.3 420 158.8C440 150.3 460 118.7 480 119.8C500 121 520 155 540 172.5C560 190 580 191 600 185C620 179 640 166 660 148.2C680 130.3 700 107.7 720 92.2C740 76.7 760 68.3 780 73.3C800 78.3 820 96.7 840 99.8C860 103 880 91 890 85L900 79L900 601L890 601C880 601 860 601 840 601C820 601 800 601 780 601C760 601 740 601 720 601C700 601 680 601 660 601C640 601 620 601 600 601C580 601 560 601 540 601C520 601 500 601 480 601C460 601 440 601 420 601C400 601 380 601 360 601C340 601 320 601 300 601C280 601 260 601 240 601C220 601 200 601 180 601C160 601 140 601 120 601C100 601 80 601 60 601C40 601 20 601 10 601L0 601Z" fill="#c19693"></path><path d="M0 197L10 195C20 193 40 189 60 172.5C80 156 100 127 120 114.7C140 102.3 160 106.7 180 115.8C200 125 220 139 240 160C260 181 280 209 300 206.5C320 204 340 171 360 158.5C380 146 400 154 420 163C440 172 460 182 480 190.3C500 198.7 520 205.3 540 189C560 172.7 580 133.3 600 133C620 132.7 640 171.3 660 179.3C680 187.3 700 164.7 720 152.3C740 140 760 138 780 137C800 136 820 136 840 150.2C860 164.3 880 192.7 890 206.8L900 221L900 601L890 601C880 601 860 601 840 601C820 601 800 601 780 601C760 601 740 601 720 601C700 601 680 601 660 601C640 601 620 601 600 601C580 601 560 601 540 601C520 601 500 601 480 601C460 601 440 601 420 601C400 601 380 601 360 601C340 601 320 601 300 601C280 601 260 601 240 601C220 601 200 601 180 601C160 601 140 601 120 601C100 601 80 601 60 601C40 601 20 601 10 601L0 601Z" fill="#c48e8d"></path><path d="M0 260L10 260.5C20 261 40 262 60 249.7C80 237.3 100 211.7 120 203.2C140 194.7 160 203.3 180 213.5C200 223.7 220 235.3 240 221.7C260 208 280 169 300 169.8C320 170.7 340 211.3 360 218.5C380 225.7 400 199.3 420 197.8C440 196.3 460 219.7 480 230.7C500 241.7 520 240.3 540 224.5C560 208.7 580 178.3 600 179.5C620 180.7 640 213.3 660 209.3C680 205.3 700 164.7 720 167.2C740 169.7 760 215.3 780 230.2C800 245 820 229 840 215C860 201 880 189 890 183L900 177L900 601L890 601C880 601 860 601 840 601C820 601 800 601 780 601C760 601 740 601 720 601C700 601 680 601 660 601C640 601 620 601 600 601C580 601 560 601 540 601C520 601 500 601 480 601C460 601 440 601 420 601C400 601 380 601 360 601C340 601 320 601 300 601C280 601 260 601 240 601C220 601 200 601 180 601C160 601 140 601 120 601C100 601 80 601 60 601C40 601 20 601 10 601L0 601Z" fill="#c68688"></path><path d="M0 173L10 179.2C20 185.3 40 197.7 60 197.8C80 198 100 186 120 181.8C140 177.7 160 181.3 180 184.3C200 187.3 220 189.7 240 203.7C260 217.7 280 243.3 300 262C320 280.7 340 292.3 360 291C380 289.7 400 275.3 420 256.7C440 238 460 215 480 209C500 203 520 214 540 214C560 214 580 203 600 215.3C620 227.7 640 263.3 660 260.8C680 258.3 700 217.7 720 199.5C740 181.3 760 185.7 780 200.8C800 216 820 242 840 256.3C860 270.7 880 273.3 890 274.7L900 276L900 601L890 601C880 601 860 601 840 601C820 601 800 601 780 601C760 601 740 601 720 601C700 601 680 601 660 601C640 601 620 601 600 601C580 601 560 601 540 601C520 601 500 601 480 601C460 601 440 601 420 601C400 601 380 601 360 601C340 601 320 601 300 601C280 601 260 601 240 601C220 601 200 601 180 601C160 601 140 601 120 601C100 601 80 601 60 601C40 601 20 601 10 601L0 601Z" fill="#c87d84"></path><path d="M0 327L10 312.7C20 298.3 40 269.7 60 254.2C80 238.7 100 236.3 120 238.5C140 240.7 160 247.3 180 256.7C200 266 220 278 240 280.7C260 283.3 280 276.7 300 274.8C320 273 340 276 360 267.7C380 259.3 400 239.7 420 246.3C440 253 460 286 480 306.5C500 327 520 335 540 330.3C560 325.7 580 308.3 600 292.5C620 276.7 640 262.3 660 267.5C680 272.7 700 297.3 720 311.8C740 326.3 760 330.7 780 328.7C800 326.7 820 318.3 840 317.7C860 317 880 324 890 327.5L900 331L900 601L890 601C880 601 860 601 840 601C820 601 800 601 780 601C760 601 740 601 720 601C700 601 680 601 660 601C640 601 620 601 600 601C580 601 560 601 540 601C520 601 500 601 480 601C460 601 440 601 420 601C400 601 380 601 360 601C340 601 320 601 300 601C280 601 260 601 240 601C220 601 200 601 180 601C160 601 140 601 120 601C100 601 80 601 60 601C40 601 20 601 10 601L0 601Z" fill="#ca7581"></path><path d="M0 369L10 353.8C20 338.7 40 308.3 60 299.7C80 291 100 304 120 318.2C140 332.3 160 347.7 180 356.5C200 365.3 220 367.7 240 358.5C260 349.3 280 328.7 300 326.8C320 325 340 342 360 337.3C380 332.7 400 306.3 420 307.7C440 309 460 338 480 340.2C500 342.3 520 317.7 540 318.8C560 320 580 347 600 344C620 341 640 308 660 298.8C680 289.7 700 304.3 720 320C740 335.7 760 352.3 780 356C800 359.7 820 350.3 840 341.5C860 332.7 880 324.3 890 320.2L900 316L900 601L890 601C880 601 860 601 840 601C820 601 800 601 780 601C760 601 740 601 720 601C700 601 680 601 660 601C640 601 620 601 600 601C580 601 560 601 540 601C520 601 500 601 480 601C460 601 440 601 420 601C400 601 380 601 360 601C340 601 320 601 300 601C280 601 260 601 240 601C220 601 200 601 180 601C160 601 140 601 120 601C100 601 80 601 60 601C40 601 20 601 10 601L0 601Z" fill="#cb6c7f"></path><path d="M0 411L10 401.2C20 391.3 40 371.7 60 357.3C80 343 100 334 120 332.8C140 331.7 160 338.3 180 345.7C200 353 220 361 240 359.7C260 358.3 280 347.7 300 352.2C320 356.7 340 376.3 360 379.2C380 382 400 368 420 369C440 370 460 386 480 378C500 370 520 338 540 330C560 322 580 338 600 341.2C620 344.3 640 334.7 660 327C680 319.3 700 313.7 720 318.8C740 324 760 340 780 355.2C800 370.3 820 384.7 840 377.5C860 370.3 880 341.7 890 327.3L900 313L900 601L890 601C880 601 860 601 840 601C820 601 800 601 780 601C760 601 740 601 720 601C700 601 680 601 660 601C640 601 620 601 600 601C580 601 560 601 540 601C520 601 500 601 480 601C460 601 440 601 420 601C400 601 380 601 360 601C340 601 320 601 300 601C280 601 260 601 240 601C220 601 200 601 180 601C160 601 140 601 120 601C100 601 80 601 60 601C40 601 20 601 10 601L0 601Z" fill="#cb627d"></path><path d="M0 397L10 402C20 407 40 417 60 410C80 403 100 379 120 382C140 385 160 415 180 414.2C200 413.3 220 381.7 240 379.3C260 377 280 404 300 419.5C320 435 340 439 360 441.7C380 444.3 400 445.7 420 443.5C440 441.3 460 435.7 480 435.5C500 435.3 520 440.7 540 436.3C560 432 580 418 600 402.3C620 386.7 640 369.3 660 366.2C680 363 700 374 720 374.5C740 375 760 365 780 360.3C800 355.7 820 356.3 840 355.2C860 354 880 351 890 349.5L900 348L900 601L890 601C880 601 860 601 840 601C820 601 800 601 780 601C760 601 740 601 720 601C700 601 680 601 660 601C640 601 620 601 600 601C580 601 560 601 540 601C520 601 500 601 480 601C460 601 440 601 420 601C400 601 380 601 360 601C340 601 320 601 300 601C280 601 260 601 240 601C220 601 200 601 180 601C160 601 140 601 120 601C100 601 80 601 60 601C40 601 20 601 10 601L0 601Z" fill="#cb597d"></path><path d="M0 470L10 467.7C20 465.3 40 460.7 60 451.7C80 442.7 100 429.3 120 430.8C140 432.3 160 448.7 180 445.8C200 443 220 421 240 414.2C260 407.3 280 415.7 300 423.3C320 431 340 438 360 443.5C380 449 400 453 420 454.3C440 455.7 460 454.3 480 450.3C500 446.3 520 439.7 540 439C560 438.3 580 443.7 600 438.5C620 433.3 640 417.7 660 417.8C680 418 700 434 720 435.8C740 437.7 760 425.3 780 418.2C800 411 820 409 840 417C860 425 880 443 890 452L900 461L900 601L890 601C880 601 860 601 840 601C820 601 800 601 780 601C760 601 740 601 720 601C700 601 680 601 660 601C640 601 620 601 600 601C580 601 560 601 540 601C520 601 500 601 480 601C460 601 440 601 420 601C400 601 380 601 360 601C340 601 320 601 300 601C280 601 260 601 240 601C220 601 200 601 180 601C160 601 140 601 120 601C100 601 80 601 60 601C40 601 20 601 10 601L0 601Z" fill="#cb4e7d"></path><path d="M0 515L10 511.3C20 507.7 40 500.3 60 498.7C80 497 100 501 120 492C140 483 160 461 180 458C200 455 220 471 240 483.2C260 495.3 280 503.7 300 500.2C320 496.7 340 481.3 360 471.8C380 462.3 400 458.7 420 454.8C440 451 460 447 480 453.2C500 459.3 520 475.7 540 476.3C560 477 580 462 600 452.7C620 443.3 640 439.7 660 449.8C680 460 700 484 720 497C740 510 760 512 780 499.8C800 487.7 820 461.3 840 453.7C860 446 880 457 890 462.5L900 468L900 601L890 601C880 601 860 601 840 601C820 601 800 601 780 601C760 601 740 601 720 601C700 601 680 601 660 601C640 601 620 601 600 601C580 601 560 601 540 601C520 601 500 601 480 601C460 601 440 601 420 601C400 601 380 601 360 601C340 601 320 601 300 601C280 601 260 601 240 601C220 601 200 601 180 601C160 601 140 601 120 601C100 601 80 601 60 601C40 601 20 601 10 601L0 601Z" fill="#ca437e"></path><path d="M0 540L10 532.5C20 525 40 510 60 507.3C80 504.7 100 514.3 120 521.8C140 529.3 160 534.7 180 538.2C200 541.7 220 543.3 240 543.5C260 543.7 280 542.3 300 532C320 521.7 340 502.3 360 501.7C380 501 400 519 420 529C440 539 460 541 480 531C500 521 520 499 540 489.3C560 479.7 580 482.3 600 487C620 491.7 640 498.3 660 507.5C680 516.7 700 528.3 720 530.2C740 532 760 524 780 516.7C800 509.3 820 502.7 840 508.5C860 514.3 880 532.7 890 541.8L900 551L900 601L890 601C880 601 860 601 840 601C820 601 800 601 780 601C760 601 740 601 720 601C700 601 680 601 660 601C640 601 620 601 600 601C580 601 560 601 540 601C520 601 500 601 480 601C460 601 440 601 420 601C400 601 380 601 360 601C340 601 320 601 300 601C280 601 260 601 240 601C220 601 200 601 180 601C160 601 140 601 120 601C100 601 80 601 60 601C40 601 20 601 10 601L0 601Z" fill="#c83880"></path><path d="M0 565L10 562.2C20 559.3 40 553.7 60 548.5C80 543.3 100 538.7 120 537.2C140 535.7 160 537.3 180 537.7C200 538 220 537 240 540.5C260 544 280 552 300 552.3C320 552.7 340 545.3 360 540.3C380 535.3 400 532.7 420 538C440 543.3 460 556.7 480 564.7C500 572.7 520 575.3 540 568.2C560 561 580 544 600 543.2C620 542.3 640 557.7 660 567.3C680 577 700 581 720 573C740 565 760 545 780 537.2C800 529.3 820 533.7 840 534.3C860 535 880 532 890 530.5L900 529L900 601L890 601C880 601 860 601 840 601C820 601 800 601 780 601C760 601 740 601 720 601C700 601 680 601 660 601C640 601 620 601 600 601C580 601 560 601 540 601C520 601 500 601 480 601C460 601 440 601 420 601C400 601 380 601 360 601C340 601 320 601 300 601C280 601 260 601 240 601C220 601 200 601 180 601C160 601 140 601 120 601C100 601 80 601 60 601C40 601 20 601 10 601L0 601Z" fill="#c62a83"></path></svg>